<svg xmlns="http://www.w3.org/2000/svg" xmlns:xlink="http://www.w3.org/1999/xlink" width="583.411" height="437.031" viewBox="0 0 583.411 437.031">
  <defs>
    <style>
      .cls-1 {
        filter: url(#filter);
      }

      .cls-2 {
        fill: none;
        stroke: #000;
        stroke-width: 3px;
      }

      .cls-3 {
        fill-rule: evenodd;
      }
    </style>
    <filter id="filter" filterUnits="userSpaceOnUse">
      <feFlood result="flood" flood-color="#fff"/>
      <feComposite result="composite" operator="in" in2="SourceGraphic"/>
      <feBlend result="blend" in2="SourceGraphic"/>
    </filter>
  </defs>
  <g id="version_1" data-name="version 1" class="cls-1">
    <circle class="cls-2" cx="292.031" cy="134.5" r="133"/>
    <path id="DR._HORVÁTH_BÉLA" data-name="DR. HORVÁTH BÉLA" class="cls-3" d="M758.975,751h19.25q9.741,0,14.2-5.192t4.463-15.225q0-10.09-4.463-15.254t-14.146-5.162H758.975v1.05q2.974,0.933,4.608,1.283v36.108a33.744,33.744,0,0,0-4.608,1.284V751Zm13.65-2.858V713.083h5.6a7.389,7.389,0,0,1,7.175,4.55q2.157,4.551,2.158,12.95,0,8.46-2.158,13.009a7.476,7.476,0,0,1-7.292,4.55h-5.483Zm62.883,0.583L827.05,733.15a11.09,11.09,0,0,0,9.217-11.55q0-5.426-2.975-8.429t-10.267-3H800.858v1.108a39.829,39.829,0,0,0,4.609,1.225v36.167q-0.7.117-2.042,0.437t-2.683.729V751h18.55v-1.05q-3.384-.992-4.667-1.225V733.558h4.667L828.158,751H840v-1.05a29.626,29.626,0,0,0-4.492-1.225h0Zm-20.883-35.642h5.308q3.734,0,5.513,2.1t1.779,6.3q0,9.218-7.292,9.217h-5.308V713.083Zm34.183,38.5a4.542,4.542,0,0,0,3.442-1.341,5.1,5.1,0,0,0,0-6.767,5.084,5.084,0,0,0-6.883,0,5.1,5.1,0,0,0,0,6.767,4.538,4.538,0,0,0,3.441,1.341h0Zm69.592-40.25v-1.166H900.142v1.05q2.566,0.817,4.491,1.225v16.391h-17.15V712.558a5.927,5.927,0,0,1,.846-0.2,33.6,33.6,0,0,0,3.646-1.254v-0.933H873.717v1.05a33.555,33.555,0,0,0,4.608,1.283v36.108a33.7,33.7,0,0,0-4.608,1.284V751h18.258v-0.992q-2.393-.757-4.492-1.225V731.75h17.15v16.917a10.768,10.768,0,0,0-1.516.35q-0.759.234-2.975,1.108V751H918.4v-0.992a31.373,31.373,0,0,0-4.608-1.283V712.617q0.991-.175,4.608-1.284h0Zm24.15,40.25q9.8,0,15.079-5.57t5.279-15.43q0-9.856-5.279-15.429t-15.079-5.571q-9.8,0-15.079,5.571t-5.279,15.429q0,9.859,5.279,15.43t15.079,5.57h0Zm0-3.033a8.979,8.979,0,0,1-8.312-4.871q-2.772-4.869-2.771-13.1,0-8.166,2.771-13.066a9.475,9.475,0,0,1,16.595,0q2.8,4.9,2.8,13.066t-2.8,13.067a8.99,8.99,0,0,1-8.283,4.9h0Zm58.86,0.175-8.46-15.575a11.1,11.1,0,0,0,9.22-11.55q0-5.426-2.978-8.429t-10.267-3H966.758v1.108a39.829,39.829,0,0,0,4.609,1.225v36.167q-0.7.117-2.042,0.437t-2.683.729V751h18.55v-1.05q-3.384-.992-4.667-1.225V733.558h4.667L994.058,751H1005.9v-1.05a29.586,29.586,0,0,0-4.49-1.225h0Zm-20.885-35.642h5.308q3.734,0,5.513,2.1t1.779,6.3q0,9.218-7.292,9.217h-5.308V713.083Zm42.465,38.15h6.83l14.06-38.675q0.4-.057,1.86-0.466c0.97-.272,1.89-0.544,2.74-0.817V710.05h-14.05v0.992a23.481,23.481,0,0,0,4.78,1.341l-10.79,31.209L1017.74,712.5a24.507,24.507,0,0,0,4.67-1.225V710.05h-18.08v1.05a29.727,29.727,0,0,0,4.55,1.342Zm45.09-51.508a8.937,8.937,0,0,0,2.19-1.721,2.739,2.739,0,0,0,.73-1.837,2.373,2.373,0,0,0-.73-1.692,2.819,2.819,0,0,0-2.13-.758,4.964,4.964,0,0,0-3.73,2.041l-7.12,7.35,1.46,2.042Zm12.9,48.942-14.47-38.734h-6.53l-14.41,38.617c-0.47.078-1.14,0.233-2.02,0.467s-1.74.486-2.59,0.758V751h14.06v-0.933a23.13,23.13,0,0,0-4.79-1.342l2.92-8.108h15.98l2.8,7.991a24.654,24.654,0,0,0-4.66,1.225V751h18.26v-1.05a38.869,38.869,0,0,0-4.55-1.283h0ZM1054.2,737.7l7-19.483,6.88,19.483H1054.2Zm35.99,13.3h19.37v-1.05q-2.865-.816-5.13-1.225V713.083h9.15a31.814,31.814,0,0,0,.91,4.609,16.771,16.771,0,0,0,1.37,4.083h1.98V710.167h-35.99v11.608h1.98a16.771,16.771,0,0,0,1.37-4.083,31.814,31.814,0,0,0,.91-4.609h9.16v35.584c-0.43.116-1.07,0.253-1.93,0.408l-3.15.758V751Zm75.89-39.667v-1.166h-18.25v1.05c1.71,0.545,3.2.953,4.49,1.225v16.391h-17.15V712.558a5.657,5.657,0,0,1,.84-0.2,33.615,33.615,0,0,0,3.65-1.254v-0.933H1121.4v1.05a33.537,33.537,0,0,0,4.61,1.283v36.108a33.785,33.785,0,0,0-4.61,1.284V751h18.26v-0.992c-1.6-.5-3.09-0.913-4.49-1.225V731.75h17.15v16.917a10.821,10.821,0,0,0-1.52.35q-0.765.234-2.97,1.108V751h18.25v-0.992a31.22,31.22,0,0,0-4.6-1.283V712.617c0.66-.117,2.19-0.544,4.6-1.284h0ZM1184.58,751h20.82q7.53,0,10.82-2.829t3.3-8.488a9.958,9.958,0,0,0-2.22-6.241,11.35,11.35,0,0,0-6.94-3.85v-0.35a9.958,9.958,0,0,0,5.57-3.675,9.851,9.851,0,0,0,1.9-5.892q0-4.782-3.3-7.146t-10.94-2.362h-19.01v1.108a34.731,34.731,0,0,0,4.66,1.225v36.05a23.5,23.5,0,0,0-4.66,1.458V751Zm13.82-22.867v-15.05h3.97c2.21,0,3.81.565,4.78,1.692s1.46,2.937,1.46,5.425a9.369,9.369,0,0,1-1.63,5.8,5.738,5.738,0,0,1-4.85,2.129h-3.73Zm0,20.009v-17.15h5.02a6.446,6.446,0,0,1,5.19,2.129,9.392,9.392,0,0,1,1.81,6.212q0,8.81-6.24,8.809h-5.78Zm48.01-48.417A9.135,9.135,0,0,0,1248.6,698a2.789,2.789,0,0,0,.73-1.837,2.415,2.415,0,0,0-.73-1.692,2.834,2.834,0,0,0-2.13-.758,4.966,4.966,0,0,0-3.74,2.041l-7.11,7.35,1.46,2.042Zm8.57,41.067a14.9,14.9,0,0,0-1.83,3.412,13.534,13.534,0,0,0-1.14,3.938h-15.34v-16.1h10.09c0.08,0.583.22,1.361,0.44,2.333a18.613,18.613,0,0,0,.78,2.683h1.46v-12.95h-1.46a23.939,23.939,0,0,0-1.22,5.017h-10.09V713.083h14.99a16.654,16.654,0,0,0,.84,3.85,18.222,18.222,0,0,0,1.43,3.559h1.99V710.167h-33.43v1.05a33.89,33.89,0,0,0,5.02,1.283v36.167a28.143,28.143,0,0,0-5.02,1.283V751h33.37l1.11-10.208h-1.99ZM1260.99,751h33.19l1.05-10.208h-1.92a14.462,14.462,0,0,0-1.84,3.412,13.534,13.534,0,0,0-1.14,3.938h-15.1V712.558c1.86-.427,3.4-0.835,4.6-1.225v-1.166H1261.4v1.05a29.214,29.214,0,0,0,4.67,1.283v36.225a35.172,35.172,0,0,0-5.08,1.225V751Zm76.83-2.333-14.47-38.734h-6.53l-14.41,38.617q-0.705.117-2.01,0.467c-0.88.233-1.74,0.486-2.6,0.758V751h14.06v-0.933a23.071,23.071,0,0,0-4.78-1.342l2.91-8.108h15.99l2.8,7.991a24.541,24.541,0,0,0-4.67,1.225V751h18.26v-1.05a38.334,38.334,0,0,0-4.55-1.283h0ZM1311.04,737.7l7-19.483,6.89,19.483h-13.89Z" transform="translate(-758.969 -375.5)"/>
    <path id="ügyvédi_iroda" data-name="ügyvédi iroda" class="cls-3" d="M929.167,800.576a6,6,0,0,0,1.333,2.481,4.671,4.671,0,0,0,2.146,1.288,10.682,10.682,0,0,0,2.937.365,6.2,6.2,0,0,0,2.313-.423,7.285,7.285,0,0,0,1.9-1.1,6.133,6.133,0,0,0,1.354-1.5,5.8,5.8,0,0,0,.729-1.634h0.167l0.291,4.576h1.042a16.453,16.453,0,0,0,2.563-.576q1.228-.384,2.437-0.885v-0.808l-2.75-.307v-17.5h-1.042q-1.334.231-2.729,0.577a27.877,27.877,0,0,0-2.687.808v1l2.708,0.308v10.576a8.416,8.416,0,0,1-1.979,3.249,4.309,4.309,0,0,1-3.146,1.25,4.508,4.508,0,0,1-2.125-.442,3.3,3.3,0,0,1-1.313-1.25,5.61,5.61,0,0,1-.666-2,17.431,17.431,0,0,1-.188-2.692q0-2.806.125-5.653t0.125-5.73h-1.041q-1.335.231-2.729,0.577t-2.73.808v1l2.75,0.308q0,2.307-.125,4.634t-0.125,4.749A14.211,14.211,0,0,0,929.167,800.576Zm2-20.4a2.723,2.723,0,0,0,3.25,0,1.788,1.788,0,0,0,.625-1.423,1.889,1.889,0,0,0-.625-1.48,2.645,2.645,0,0,0-3.25,0,1.886,1.886,0,0,0-.625,1.48A1.785,1.785,0,0,0,931.167,780.175Zm9.25,0a2.723,2.723,0,0,0,3.25,0,1.788,1.788,0,0,0,.625-1.423,1.889,1.889,0,0,0-.625-1.48,2.645,2.645,0,0,0-3.25,0,1.886,1.886,0,0,0-.625,1.48A1.785,1.785,0,0,0,940.417,780.175Zm15.708,4.846a7.421,7.421,0,0,0-2.583,1.307,5.7,5.7,0,0,0-1.584,1.981,5.594,5.594,0,0,0-.541,2.442,5.748,5.748,0,0,0,1.271,3.653,6.371,6.371,0,0,0,3.645,2.192,7.735,7.735,0,0,0-1.645,1.365,2.574,2.574,0,0,0-.813,1.75,2.356,2.356,0,0,0,.6,1.634A4.177,4.177,0,0,0,956,802.4a19.269,19.269,0,0,0-2.292.827,6.617,6.617,0,0,0-1.666,1.019,3.937,3.937,0,0,0-1.021,1.346,4.284,4.284,0,0,0-.354,1.807,4.153,4.153,0,0,0,2.312,3.577q2.313,1.422,6.854,1.423a18.337,18.337,0,0,0,3.98-.4,10.875,10.875,0,0,0,3.1-1.154,5.917,5.917,0,0,0,2.021-1.865,4.242,4.242,0,0,0,.687-2.5,3.794,3.794,0,0,0-1.021-2.634,7.463,7.463,0,0,0-2.437-1.654,16.727,16.727,0,0,0-3.146-1q-1.687-.366-3.125-0.712a13.153,13.153,0,0,1-2.4-.788,1.356,1.356,0,0,1-.958-1.212,1.613,1.613,0,0,1,.271-0.884q0.27-.423.479-0.769,0.624,0.077,1.125.115t1.291,0.039q4.041,0,6.146-1.731a5.55,5.55,0,0,0,2.1-4.5,5.929,5.929,0,0,0-1.041-3.654h4.375l0.541-.923a5.024,5.024,0,0,0-.145-1.153,2.66,2.66,0,0,0-.48-1.039,18.321,18.321,0,0,0-5.125,2.231,6.749,6.749,0,0,0-2.583-1.25,15.214,15.214,0,0,0-3.792-.4A12.515,12.515,0,0,0,956.125,785.021Zm9.5,23.65a2.461,2.461,0,0,1-.854,1.058,4.85,4.85,0,0,1-1.625.711,10.281,10.281,0,0,1-2.563.269A8.5,8.5,0,0,1,956,809.69a3.392,3.392,0,0,1-1.583-3.057,4.388,4.388,0,0,1,.5-2.019A4.933,4.933,0,0,1,957,802.749q1.333,0.385,2.875.692a22.169,22.169,0,0,1,2.875.769,7.223,7.223,0,0,1,2.229,1.193,2.4,2.4,0,0,1,.9,1.961A3.432,3.432,0,0,1,965.625,808.671Zm-9.458-21.247q1-1.173,3.541-1.173a4.336,4.336,0,0,1,3.48,1.212,4.941,4.941,0,0,1,1.02,3.288,5.021,5.021,0,0,1-1.041,3.23,4.169,4.169,0,0,1-3.459,1.307,5.626,5.626,0,0,1-2.166-.365,3.6,3.6,0,0,1-1.4-.98,3.726,3.726,0,0,1-.75-1.443,6.509,6.509,0,0,1-.229-1.749A4.979,4.979,0,0,1,956.167,787.424Zm25.583,16.825q-0.334,1-.583,1.653t-0.459,1.077a6.109,6.109,0,0,1-.833,1.308h-4.333L975,809.21q0.251,0.807.6,1.692a10.068,10.068,0,0,0,.813,1.615,9.178,9.178,0,0,0,2.021-.6,6.067,6.067,0,0,0,1.833-1.288,11.854,11.854,0,0,0,1.792-2.4,30.973,30.973,0,0,0,1.895-3.98l6.5-17.306a8.681,8.681,0,0,0,2.375-.923v-1h-7.125v1a6.074,6.074,0,0,0,2.292.923l-3.958,11.345-0.625,2.423h-0.083l-0.786-2.384-5.3-11.384a9.506,9.506,0,0,0,2.375-.961v-0.961h-8.75v1a11.693,11.693,0,0,0,1.063.539,6.831,6.831,0,0,0,1.145.384Zm23.67,0,7.37-17.306a13.1,13.1,0,0,0,1.36-.423,5.574,5.574,0,0,0,1.02-.5v-1h-7.09v1a7.437,7.437,0,0,0,1.07.539,7.537,7.537,0,0,0,1.23.384l-4.45,11.537-0.62,2.423h-0.08l-0.83-2.384-4.817-11.576a8.322,8.322,0,0,0,1.267-.442q0.57-.249,1.11-0.519v-0.961h-8.752v1a12.794,12.794,0,0,0,2.209.923l8.123,17.767Zm26.58-3.307a5.86,5.86,0,0,1-2.25,1,11.877,11.877,0,0,1-2.96.385,7.584,7.584,0,0,1-3.12-.6,6.051,6.051,0,0,1-2.21-1.634,6.977,6.977,0,0,1-1.31-2.442,9.84,9.84,0,0,1-.44-3.019h13a12.063,12.063,0,0,0,.23-1.442q0.06-.673.06-1.327a7.85,7.85,0,0,0-.69-3.48,6.193,6.193,0,0,0-1.79-2.25,7.019,7.019,0,0,0-2.52-1.212,11.441,11.441,0,0,0-2.87-.365,9.166,9.166,0,0,0-6.96,2.577q-2.46,2.577-2.46,7.5a12.543,12.543,0,0,0,.64,4.153,8.847,8.847,0,0,0,1.9,3.173,8.221,8.221,0,0,0,3.13,2.038,12.155,12.155,0,0,0,4.33.711,9.835,9.835,0,0,0,2.21-.25,10.256,10.256,0,0,0,2-.673,7.482,7.482,0,0,0,1.62-1,3.883,3.883,0,0,0,1.04-1.23Zm-3.92-13.229a6.812,6.812,0,0,1,1,3.922c0,0.206,0,.417-0.02.635s-0.03.442-.06,0.673h-9.17q0.255-3.73,1.5-5.211a4.5,4.5,0,0,1,3.63-1.481A3.5,3.5,0,0,1,1028.08,787.713Zm-5.54-6.269,0.92,0.692,7.79-5.807V775.6a2.839,2.839,0,0,0-.75-0.366,7.983,7.983,0,0,0-1.08-.288c-0.39-.077-0.77-0.135-1.13-0.173a4.161,4.161,0,0,0-.87-0.019Zm28.13,19,0.37,4.191h1.04a15.691,15.691,0,0,0,2.55-.538,20.8,20.8,0,0,0,2.5-.923v-0.808l-2.75-.307V775.33h-1.05q-1.455.229-3.06,0.576a19.131,19.131,0,0,0-2.81.808v1l3.17,0.308v7.268a12.116,12.116,0,0,0-1.92-.481,16.912,16.912,0,0,0-2.42-.134,9.558,9.558,0,0,0-7.02,2.576c-1.74,1.718-2.6,4.218-2.6,7.5q0,5.115,2.04,7.538t6.17,2.422a5.808,5.808,0,0,0,2.02-.346,5.7,5.7,0,0,0,1.66-.942,5.763,5.763,0,0,0,1.23-1.365,5.132,5.132,0,0,0,.71-1.615h0.17Zm-7.23,1.288a4.755,4.755,0,0,1-1.56-1.634,7.6,7.6,0,0,1-.92-2.4,13.706,13.706,0,0,1-.29-2.942,10.971,10.971,0,0,1,1.5-6.1,4.862,4.862,0,0,1,4.33-2.288,16.147,16.147,0,0,1,2.46.153,5.3,5.3,0,0,1,1.67.539V797.9a6.458,6.458,0,0,1-1.67,3.23,4.433,4.433,0,0,1-3.25,1.192A4.123,4.123,0,0,1,1043.44,801.73Zm25.6,1.557a7.534,7.534,0,0,0-1.25-.519q-0.66-.21-1.5-0.4V784.559h-1.04c-0.94.154-1.89,0.346-2.83,0.577a22,22,0,0,0-2.63.808v1l2.75,0.308v15.113c-0.53.129-1.01,0.264-1.46,0.4a9.79,9.79,0,0,0-1.29.519v0.962h9.25v-0.962Zm-6.56-23.17a2.951,2.951,0,0,0,1.94.6,2.866,2.866,0,0,0,1.91-.6,2,2,0,0,0,.71-1.634,2.059,2.059,0,0,0-.71-1.654,2.816,2.816,0,0,0-1.91-.615,2.9,2.9,0,0,0-1.94.615,2.044,2.044,0,0,0-.73,1.654A1.986,1.986,0,0,0,1062.48,780.117Zm29.23,23.17a7.907,7.907,0,0,0-1.25-.519q-0.675-.21-1.5-0.4V784.559h-1.04c-0.95.154-1.89,0.346-2.84,0.577a21.821,21.821,0,0,0-2.62.808v1l2.75,0.308v15.113c-0.53.129-1.02,0.264-1.46,0.4a9.79,9.79,0,0,0-1.29.519v0.962h9.25v-0.962Zm-6.56-23.17a2.941,2.941,0,0,0,1.93.6,2.876,2.876,0,0,0,1.92-.6,2.029,2.029,0,0,0,.71-1.634,2.09,2.09,0,0,0-.71-1.654,2.825,2.825,0,0,0-1.92-.615,2.889,2.889,0,0,0-1.93.615,2.044,2.044,0,0,0-.73,1.654A1.986,1.986,0,0,0,1085.15,780.117Zm23.85,7.788v-1c-0.14-.436-0.29-0.852-0.44-1.25a6.806,6.806,0,0,0-.52-1.1,5.48,5.48,0,0,0-2.19.212,7.123,7.123,0,0,0-1.95.942,8.8,8.8,0,0,0-1.59,1.384,6.748,6.748,0,0,0-1.06,1.539h-0.17v-4.077h-1.04c-0.86.129-1.76,0.3-2.71,0.519a18.561,18.561,0,0,0-2.75.866v1l2.75,0.308v15.113c-0.44.1-.89,0.219-1.33,0.347a8.145,8.145,0,0,0-1.42.576v0.962h9.84v-0.962a8.147,8.147,0,0,0-1.67-.634,10.934,10.934,0,0,0-1.67-.289V790.943a6.282,6.282,0,0,1,1.23-2.1,4.735,4.735,0,0,1,1.15-.942H1109Zm2.6,10.864a8.661,8.661,0,0,0,1.82,3.192,7.876,7.876,0,0,0,3.04,2.038,11.964,11.964,0,0,0,4.33.711,9.8,9.8,0,0,0,7.17-2.615q2.67-2.615,2.67-7.46a13.909,13.909,0,0,0-.57-4.115,8.28,8.28,0,0,0-1.75-3.173,7.834,7.834,0,0,0-3.06-2.057,12.288,12.288,0,0,0-4.46-.731,11.5,11.5,0,0,0-4.02.673,8.517,8.517,0,0,0-3.1,1.961,8.62,8.62,0,0,0-1.98,3.154,12.32,12.32,0,0,0-.69,4.288A13.446,13.446,0,0,0,1111.6,798.769Zm4.9-10.48a4.688,4.688,0,0,1,3.96-2.038,5.632,5.632,0,0,1,2.79.654,5.478,5.478,0,0,1,1.92,1.788,8.188,8.188,0,0,1,1.1,2.654,14.244,14.244,0,0,1,.36,3.288q0,4.306-1.44,6.345a4.351,4.351,0,0,1-3.69,2.038,6.366,6.366,0,0,1-3-.654,5.437,5.437,0,0,1-2.02-1.788,7.794,7.794,0,0,1-1.13-2.672,14.913,14.913,0,0,1-.35-3.269Q1115,790.329,1116.5,788.289Zm31.54,12.153,0.38,4.191h1.04a15.579,15.579,0,0,0,2.54-.538,20.8,20.8,0,0,0,2.5-.923v-0.808l-2.75-.307V775.33h-1.04c-0.97.153-2,.346-3.06,0.576a19.656,19.656,0,0,0-2.82.808v1l3.17,0.308v7.268a11.6,11.6,0,0,0-1.92-.481,16.852,16.852,0,0,0-2.41-.134,9.527,9.527,0,0,0-7.02,2.576q-2.61,2.577-2.61,7.5,0,5.115,2.04,7.538t6.17,2.422a5.8,5.8,0,0,0,3.69-1.288,6.229,6.229,0,0,0,1.23-1.365,5.371,5.371,0,0,0,.71-1.615h0.16Zm-7.23,1.288a4.946,4.946,0,0,1-1.56-1.634,7.846,7.846,0,0,1-.92-2.4,14.374,14.374,0,0,1-.29-2.942,10.971,10.971,0,0,1,1.5-6.1,4.879,4.879,0,0,1,4.34-2.288,16,16,0,0,1,2.45.153,5.214,5.214,0,0,1,1.67.539V797.9a6.381,6.381,0,0,1-1.67,3.23,4.417,4.417,0,0,1-3.25,1.192A4.147,4.147,0,0,1,1140.81,801.73Zm31.84-6.615c0.06-1.422.1-2.9,0.1-4.441a11.231,11.231,0,0,0-.21-2.154,4.488,4.488,0,0,0-2.81-3.4,8.6,8.6,0,0,0-3.4-.558,17.267,17.267,0,0,0-4.31.5,14.844,14.844,0,0,0-3.52,1.385,14,14,0,0,0,.4,2.422,22.7,22.7,0,0,0,.73,2.385h1.08l1.96-4.615a5.161,5.161,0,0,1,1.43-.327q0.735-.058,1.32-0.058a3.574,3.574,0,0,1,2.02.519,3.2,3.2,0,0,1,1.16,1.462,6.486,6.486,0,0,1,.46,2.269,20.743,20.743,0,0,1-.1,2.98c-1.95.1-3.65,0.25-5.13,0.442a13.847,13.847,0,0,0-3.7.942,5.208,5.208,0,0,0-2.28,1.789,5.089,5.089,0,0,0-.77,2.9,4.75,4.75,0,0,0,1.61,3.73,6.007,6.007,0,0,0,4.14,1.423,6.885,6.885,0,0,0,2.38-.384,6.461,6.461,0,0,0,1.81-1,5.417,5.417,0,0,0,1.25-1.4,5.043,5.043,0,0,0,.65-1.557h0.21q0.03,1.269.12,2.326a5.577,5.577,0,0,0,.5,1.942h1.04a19.315,19.315,0,0,0,2.44-.576,15.684,15.684,0,0,0,2.31-.885v-0.808l-2.87-.384c-0.03-.462-0.06-0.9-0.09-1.308s-0.04-.9-0.04-1.461C1172.54,797.9,1172.58,796.538,1172.65,795.115ZM1162,801.422a3.434,3.434,0,0,1-.92-2.557,4.049,4.049,0,0,1,.34-1.711,2.7,2.7,0,0,1,1.21-1.25,6.972,6.972,0,0,1,2.41-.731,27.682,27.682,0,0,1,3.96-.231v4.038a4.782,4.782,0,0,1-.46.942,5.528,5.528,0,0,1-.87,1.1,4.874,4.874,0,0,1-1.34.923,4.114,4.114,0,0,1-1.83.385A3.4,3.4,0,0,1,1162,801.422Z" transform="translate(-758.969 -375.5)"/>
    <g id="HB">
      <path id="B" class="cls-3" d="M1037.69,571h62.46q22.575,0,32.46-8.486t9.89-25.459a29.917,29.917,0,0,0-6.65-18.722q-6.66-8.571-20.83-11.548v-1.05q11.025-3.15,16.71-11.024a29.463,29.463,0,0,0,5.69-17.672q0-14.344-9.89-21.434t-32.8-7.087h-57.04v3.325a105.052,105.052,0,0,0,13.99,3.674V563.651q-4.725.7-13.99,4.374V571Zm41.46-68.59V457.267h11.9q9.975,0,14.35,5.074t4.37,16.273q0,11.024-4.89,17.41-4.905,6.389-14.53,6.386h-11.2Zm0,60.016V510.984h15.05q10.155,0,15.57,6.387,5.43,6.389,5.43,18.634,0,26.423-18.72,26.421h-17.33Z" transform="translate(-758.969 -375.5)"/>
      <path id="H" class="cls-3" d="M1092.45,452.018v-3.5h-54.77v3.15q7.71,2.452,13.48,3.674V504.51H999.715V455.692a17.124,17.124,0,0,1,2.535-.612,101.48,101.48,0,0,0,10.94-3.762v-2.8H958.422v3.15a100.267,100.267,0,0,0,13.823,3.849V563.826q-3.675.525-13.823,3.849V571h54.768v-2.975q-7.185-2.271-13.475-3.674V513.259h51.445V564a32.151,32.151,0,0,0-4.55,1.05q-2.28.7-8.93,3.324V571h54.77v-2.975a94.078,94.078,0,0,0-13.82-3.849V455.867q2.97-.525,13.82-3.849h0Z" transform="translate(-758.969 -375.5)"/>
    </g>
  </g>
</svg>
