<?xml version="1.0" encoding="UTF-8"?>
<svg id="Layer_2" data-name="Layer 2" xmlns="http://www.w3.org/2000/svg" viewBox="0 0 184.08 122.5">
  <defs>
    <style>
      .cls-1 {
        fill: #fff;
        fill-rule: evenodd;
      }
    </style>
  </defs>
  <g id="Layer_2-2" data-name="Layer 2">
    <g id="Layer_1-2" data-name="Layer 1-2">
      <g id="version_1" data-name="version 1">
        <g id="HB">
          <path id="B" class="cls-1" d="m79.27,122.48h62.46c15.05,0,25.87-2.83,32.46-8.49s9.89-14.14,9.89-25.46c-.02-6.82-2.37-13.42-6.65-18.72-4.44-5.71-11.38-9.56-20.83-11.55v-1.05c7.35-2.1,12.92-5.77,16.71-11.02,3.75-5.12,5.75-11.32,5.69-17.67,0-9.56-3.3-16.71-9.89-21.43S151.58,0,136.31,0h-57.04v3.33c4.57,1.54,9.25,2.77,13.99,3.67v108.13c-3.15.47-7.81,1.92-13.99,4.37v2.97h0Zm41.46-68.59V8.75h11.9c6.65,0,11.43,1.69,14.35,5.07s4.37,8.81,4.37,16.27-1.63,13.15-4.89,17.41c-3.27,4.26-8.11,6.39-14.53,6.39h-11.2Zm0,60.02v-51.44h15.05c6.77,0,11.96,2.13,15.57,6.39,3.62,4.26,5.43,10.47,5.43,18.63,0,17.62-6.24,26.42-18.72,26.42h-17.33,0Z"/>
          <path id="H" class="cls-1" d="m134.03,3.5V0h-54.77v3.15c5.14,1.63,9.63,2.86,13.48,3.67v49.17h-51.44V7.17c.83-.27,1.68-.47,2.53-.61,3.72-1.04,7.37-2.3,10.94-3.76V0H0v3.15c4.51,1.61,9.13,2.9,13.82,3.85v108.31c-2.45.35-7.06,1.63-13.82,3.85v3.33h54.77v-2.97c-4.79-1.51-9.28-2.74-13.47-3.67v-51.09h51.45v50.74c-1.54.24-3.06.59-4.55,1.05-1.52.47-4.5,1.57-8.93,3.32v2.63h54.77v-2.97c-4.5-1.63-9.12-2.92-13.82-3.85V7.37c1.98-.35,6.59-1.63,13.82-3.85h0v-.02Z"/>
        </g>
      </g>
    </g>
  </g>
</svg>